<svg width="22" height="29" viewBox="0 0 22 29" fill="none" xmlns="http://www.w3.org/2000/svg">
<path d="M11.052 27.216C9.18 27.216 7.38 26.916 5.652 26.316C3.948 25.716 2.628 24.924 1.692 23.94L2.736 21.888C3.648 22.8 4.86 23.544 6.372 24.12C7.884 24.672 9.444 24.948 11.052 24.948C13.308 24.948 15 24.54 16.128 23.724C17.256 22.884 17.82 21.804 17.82 20.484C17.82 19.476 17.508 18.672 16.884 18.072C16.284 17.472 15.54 17.016 14.652 16.704C13.764 16.368 12.528 16.008 10.944 15.624C9.048 15.144 7.536 14.688 6.408 14.256C5.28 13.8 4.308 13.116 3.492 12.204C2.7 11.292 2.304 10.056 2.304 8.496C2.304 7.224 2.64 6.072 3.312 5.04C3.984 3.984 5.016 3.144 6.408 2.52C7.8 1.896 9.528 1.584 11.592 1.584C13.032 1.584 14.436 1.788 15.804 2.196C17.196 2.58 18.396 3.12 19.404 3.816L18.504 5.94C17.448 5.244 16.32 4.728 15.12 4.392C13.92 4.032 12.744 3.852 11.592 3.852C9.384 3.852 7.716 4.284 6.588 5.148C5.484 5.988 4.932 7.08 4.932 8.424C4.932 9.432 5.232 10.248 5.832 10.872C6.456 11.472 7.224 11.94 8.136 12.276C9.072 12.588 10.32 12.936 11.88 13.32C13.728 13.776 15.216 14.232 16.344 14.688C17.496 15.12 18.468 15.792 19.26 16.704C20.052 17.592 20.448 18.804 20.448 20.34C20.448 21.612 20.1 22.776 19.404 23.832C18.732 24.864 17.688 25.692 16.272 26.316C14.856 26.916 13.116 27.216 11.052 27.216Z" fill="#393939" fill-opacity="0.63"/>
<path d="M5.652 26.316L5.31987 27.2592L5.32399 27.2607L5.652 26.316ZM1.692 23.94L0.800722 23.4865L0.480051 24.1168L0.967442 24.6292L1.692 23.94ZM2.736 21.888L3.44311 21.1809L2.46925 20.207L1.84472 21.4345L2.736 21.888ZM6.372 24.12L6.01597 25.0546L6.02906 25.0594L6.372 24.12ZM16.128 23.724L16.7142 24.5343L16.7253 24.526L16.128 23.724ZM16.884 18.072L16.1769 18.7791L16.1838 18.786L16.1909 18.7928L16.884 18.072ZM14.652 16.704L14.2981 17.6393L14.3093 17.6435L14.3205 17.6475L14.652 16.704ZM10.944 15.624L10.6986 16.5935L10.7084 16.5958L10.944 15.624ZM6.408 14.256L6.03321 15.1831L6.04175 15.1866L6.05035 15.1899L6.408 14.256ZM3.492 12.204L2.73697 12.8597L2.74182 12.8653L2.74676 12.8708L3.492 12.204ZM3.312 5.04L4.15004 5.5857L4.15566 5.57687L3.312 5.04ZM6.408 2.52L6.81706 3.43251L6.81706 3.43251L6.408 2.52ZM15.804 2.196L15.5182 3.15429L15.5281 3.15724L15.5381 3.15999L15.804 2.196ZM19.404 3.816L20.3248 4.20615L20.6426 3.45601L19.9722 2.9931L19.404 3.816ZM18.504 5.94L17.9537 6.77496L18.9563 7.43575L19.4248 6.33015L18.504 5.94ZM15.12 4.392L14.8327 5.34983L14.8415 5.35248L14.8504 5.35496L15.12 4.392ZM6.588 5.148L7.19353 5.94383L7.19608 5.94188L6.588 5.148ZM5.832 10.872L5.11117 11.5651L5.12476 11.5792L5.13889 11.5928L5.832 10.872ZM8.136 12.276L7.7903 13.2143L7.80495 13.2197L7.81977 13.2247L8.136 12.276ZM11.88 13.32L12.1196 12.3491L12.119 12.349L11.88 13.32ZM16.344 14.688L15.9692 15.6151L15.981 15.6199L15.9929 15.6243L16.344 14.688ZM19.26 16.704L18.5049 17.3597L18.5137 17.3696L19.26 16.704ZM19.404 23.832L18.569 23.2817L18.566 23.2863L19.404 23.832ZM16.272 26.316L16.6621 27.2368L16.6687 27.234L16.6753 27.2311L16.272 26.316ZM11.052 26.216C9.28901 26.216 7.60005 25.9338 5.98001 25.3713L5.32399 27.2607C7.15995 27.8982 9.07099 28.216 11.052 28.216V26.216ZM5.98413 25.3728C4.38201 24.8086 3.21375 24.0889 2.41656 23.2508L0.967442 24.6292C2.04225 25.7591 3.51399 26.6234 5.31988 27.2592L5.98413 25.3728ZM2.58328 24.3935L3.62728 22.3415L1.84472 21.4345L0.800722 23.4865L2.58328 24.3935ZM2.02889 22.5951C3.06255 23.6288 4.40474 24.4407 6.016 25.0545L6.728 23.1855C5.31526 22.6473 4.23345 21.9712 3.44311 21.1809L2.02889 22.5951ZM6.02906 25.0594C7.65083 25.6514 9.3269 25.948 11.052 25.948V23.948C9.5611 23.948 8.11717 23.6926 6.71494 23.1806L6.02906 25.0594ZM11.052 25.948C13.3987 25.948 15.3391 25.529 16.7141 24.5342L15.5419 22.9138C14.661 23.551 13.2173 23.948 11.052 23.948V25.948ZM16.7253 24.526C18.0873 23.5117 18.82 22.1433 18.82 20.484H16.82C16.82 21.4647 16.4247 22.2563 15.5307 22.922L16.7253 24.526ZM18.82 20.484C18.82 19.2526 18.4297 18.1709 17.5771 17.3512L16.1909 18.7928C16.5863 19.1731 16.82 19.6994 16.82 20.484H18.82ZM17.5911 17.3649C16.8741 16.6479 15.9972 16.1167 14.9835 15.7605L14.3205 17.6475C15.0828 17.9153 15.6939 18.2961 16.1769 18.7791L17.5911 17.3649ZM15.0059 15.7687C14.0615 15.4114 12.7797 15.0401 11.1796 14.6521L10.7084 16.5958C12.2763 16.9759 13.4665 17.3246 14.2981 17.6393L15.0059 15.7687ZM11.1894 14.6546C9.31132 14.1791 7.84164 13.7342 6.76565 13.3221L6.05035 15.1899C7.23036 15.6418 8.78468 16.1089 10.6986 16.5934L11.1894 14.6546ZM6.78279 13.3289C5.79741 12.9305 4.9519 12.3359 4.23724 11.5372L2.74676 12.8708C3.6641 13.8961 4.76259 14.6695 6.03321 15.1831L6.78279 13.3289ZM4.24703 11.5483C3.6545 10.866 3.304 9.88693 3.304 8.496H1.304C1.304 10.2251 1.7455 11.718 2.73697 12.8597L4.24703 11.5483ZM3.304 8.496C3.304 7.41101 3.58733 6.44976 4.15 5.58567L2.474 4.49433C1.69267 5.69423 1.304 7.03699 1.304 8.496H3.304ZM4.15566 5.57687C4.70166 4.71888 5.56416 3.99415 6.81706 3.43251L5.99894 1.60749C4.46784 2.29385 3.26635 3.24911 2.46834 4.50312L4.15566 5.57687ZM6.81706 3.43251C8.04348 2.88273 9.62198 2.584 11.592 2.584V0.583999C9.43402 0.583999 7.55652 0.909268 5.99894 1.60749L6.81706 3.43251ZM11.592 2.584C12.9361 2.584 14.2438 2.77419 15.5182 3.15429L16.0898 1.23771C14.6282 0.801806 13.1279 0.583999 11.592 0.583999V2.584ZM15.5381 3.15999C16.841 3.51941 17.9348 4.01675 18.8358 4.6389L19.9722 2.9931C18.8572 2.22325 17.551 1.64059 16.0699 1.23201L15.5381 3.15999ZM18.4832 3.42585L17.5832 5.54985L19.4248 6.33015L20.3248 4.20615L18.4832 3.42585ZM19.0543 5.10504C17.9132 4.35297 16.6907 3.79335 15.3896 3.42904L14.8504 5.35496C15.9493 5.66265 16.9828 6.13503 17.9537 6.77496L19.0543 5.10504ZM15.4073 3.43417C14.1222 3.04864 12.8494 2.852 11.592 2.852V4.852C12.6386 4.852 13.7178 5.01536 14.8327 5.34983L15.4073 3.43417ZM11.592 2.852C9.27858 2.852 7.35553 3.30047 5.97992 4.35412L7.19608 5.94188C8.07647 5.26753 9.48942 4.852 11.592 4.852V2.852ZM5.98248 4.35217C4.63929 5.37416 3.932 6.75609 3.932 8.424H5.932C5.932 7.40391 6.32871 6.60183 7.19352 5.94383L5.98248 4.35217ZM3.932 8.424C3.932 9.6448 4.30274 10.7243 5.11117 11.5651L6.55283 10.1789C6.16127 9.77166 5.932 9.2192 5.932 8.424H3.932ZM5.13889 11.5928C5.87398 12.2996 6.76464 12.8365 7.7903 13.2143L8.48171 11.3377C7.68336 11.0435 7.03802 10.6444 6.52511 10.1512L5.13889 11.5928ZM7.81977 13.2247C8.79192 13.5487 10.0689 13.904 11.641 14.291L12.119 12.349C10.5711 11.968 9.35209 11.6273 8.45223 11.3273L7.81977 13.2247ZM11.6404 14.2909C13.465 14.7411 14.9025 15.1839 15.9692 15.6151L16.7188 13.7609C15.5295 13.2801 13.991 12.8109 12.1196 12.3491L11.6404 14.2909ZM15.9929 15.6243C16.992 15.999 17.8242 16.5758 18.505 17.3597L20.015 16.0483C19.1118 15.0082 18 14.241 16.6951 13.7517L15.9929 15.6243ZM18.5137 17.3696C19.0993 18.0262 19.448 18.9761 19.448 20.34H21.448C21.448 18.6319 21.0047 17.1578 20.0063 16.0384L18.5137 17.3696ZM19.448 20.34C19.448 21.4176 19.1567 22.39 18.569 23.2817L20.239 24.3823C21.0433 23.162 21.448 21.8064 21.448 20.34H19.448ZM18.566 23.2863C18.0242 24.1184 17.1525 24.8352 15.8687 25.4009L16.6753 27.2311C18.2235 26.5488 19.4398 25.6096 20.242 24.3777L18.566 23.2863ZM15.8819 25.3952C14.6237 25.9284 13.0253 26.216 11.052 26.216V28.216C13.2068 28.216 15.0883 27.9036 16.6621 27.2368L15.8819 25.3952Z" fill="#393939" fill-opacity="0.63"/>
</svg>
